HIERARCHY
ROOT Hips
{
	OFFSET 0.000000 0.000000 0.000000 
	CHANNELS 6 Xposition Yposition Zposition Zrotation Yrotation Xrotation
	JOINT LeftUpLeg
	{
		OFFSET 1.363060 -1.794630 0.839290 
		CHANNELS 3 Zrotation Yrotation Xrotation
		JOINT LeftLeg
		{
			OFFSET 2.448110 -6.726130 0.000000 
			CHANNELS 3 Zrotation Yrotation Xrotation
			JOINT LeftFoot
			{
				OFFSET 2.562200 -7.039590 0.000000 
				CHANNELS 3 Zrotation Yrotation Xrotation
				JOINT LeftToeBase
				{
					OFFSET 0.157640 -0.433110 2.322550 
					CHANNELS 3 Zrotation Yrotation Xrotation
					End Site
					{
						OFFSET 0.000000 0.000000 0.000000 
					}
				}
			}
		}
	}
	JOINT RightUpLeg
	{
		OFFSET -1.305520 -1.794630 0.839290 
		CHANNELS 3 Zrotation Yrotation Xrotation
		JOINT RightLeg
		{
			OFFSET -2.542530 -6.985550 0.000000 
			CHANNELS 3 Zrotation Yrotation Xrotation
			JOINT RightFoot
			{
				OFFSET -2.568260 -7.056230 0.000000 
				CHANNELS 3 Zrotation Yrotation Xrotation
				JOINT RightToeBase
				{
					OFFSET -0.164730 -0.452590 2.363150 
					CHANNELS 3 Zrotation Yrotation Xrotation
					End Site
					{
						OFFSET 0.000000 0.000000 0.000000 
					}
				}
			}
		}
	}
	JOINT Spine
	{
		OFFSET 0.028270 2.035590 -0.193380 
		CHANNELS 3 Zrotation Yrotation Xrotation
		JOINT Spine1
		{
			OFFSET 0.056720 2.048850 -0.042750 
			CHANNELS 3 Zrotation Yrotation Xrotation
			JOINT Neck1
			{
				OFFSET -0.054170 1.746240 0.172020 
				CHANNELS 3 Zrotation Yrotation Xrotation
				JOINT Head
				{
					OFFSET 0.104070 1.761360 -0.123970 
					CHANNELS 3 Zrotation Yrotation Xrotation
					End Site
					{
						OFFSET 0.000000 0.000000 0.000000 
					}
				}
			}
			JOINT LeftArm
			{
				OFFSET 3.362410 1.200890 -0.311210 
				CHANNELS 3 Zrotation Yrotation Xrotation
				JOINT LeftForeArm
				{
					OFFSET 4.983000 -0.000000 -0.000000 
					CHANNELS 3 Zrotation Yrotation Xrotation
					JOINT LeftHand
					{
						OFFSET 3.483560 -0.000000 -0.000000 
						CHANNELS 3 Zrotation Yrotation Xrotation
						JOINT LeftHandIndex1
						{
							OFFSET 0.715260 -0.000000 -0.000000 
							CHANNELS 3 Zrotation Yrotation Xrotation
							End Site
							{
								OFFSET 0.000000 0.000000 0.000000 
							}
						}
					}
				}
			}
			JOINT RightArm
			{
				OFFSET -3.136600 1.374050 -0.404650 
				CHANNELS 3 Zrotation Yrotation Xrotation
				JOINT RightForeArm
				{
					OFFSET -5.241900 -0.000000 -0.000000 
					CHANNELS 3 Zrotation Yrotation Xrotation
					JOINT RightHand
					{
						OFFSET -3.444170 -0.000000 -0.000000 
						CHANNELS 3 Zrotation Yrotation Xrotation
						JOINT RightHandIndex1
						{
							OFFSET -0.622530 -0.000000 -0.000000 
							CHANNELS 3 Zrotation Yrotation Xrotation
							End Site
							{
								OFFSET 0.000000 0.000000 0.000000 
							}
						}
					}
				}
			}
		}
	}
}
MOTION
Frames: 15
Frame Time: 0.041667
19.215433 18.443126 -3.883310 -80.795271 75.668172 -81.054416 -11.051768 -28.666042 -12.716069 -10.658790 3.936873 3.971718 -2.019711 9.460810 -11.884628 10.597300 -17.732300 -61.466600 48.833516 -15.200975 4.567101 3.428115 -16.049655 46.446551 1.353237 -20.160123 0.669083 -0.027900 -1.077600 2.962300 2.022508 4.046073 -4.681453 0.506775 1.537388 -13.447837 0.513958 -1.447102 20.751502 -1.835100 -0.203100 17.791700 -82.023045 43.168652 35.476211 83.533251 -57.052947 -52.471808 -1.660895 0.890232 2.929788 -7.125000 0.000000 0.000000 67.743567 -18.611070 42.782973 -79.292943 58.718818 -45.445418 1.795004 -1.734168 -14.950892 7.125000 0.000000 0.000000 
20.005048 18.305884 -3.835069 -75.857532 76.053898 -76.606679 -13.060459 -27.000702 -10.960801 -10.801296 3.974380 5.228981 -1.916271 9.162464 -9.020608 10.694000 -17.782100 -61.783900 47.048483 -15.429031 3.060573 1.387416 -17.178927 51.940445 1.876625 -21.419493 -6.811652 -0.003300 -0.370600 1.018200 2.102966 3.898137 -4.563141 1.214859 1.643234 -12.974277 0.571551 -1.358685 20.850003 -1.937800 -0.067600 17.831700 -80.580495 43.297056 36.637224 81.837911 -57.171205 -51.032108 -1.650402 0.880402 1.286096 -7.125000 0.000000 0.000000 67.159280 -19.139091 43.762957 -79.059452 58.713387 -45.196088 1.787830 -1.695358 -15.394060 7.125000 0.000000 0.000000 
20.792654 18.098960 -3.794868 -71.293194 76.470920 -72.782946 -15.298366 -24.842180 -9.163461 -10.991712 4.193424 6.853850 -3.232853 12.927921 -6.192880 10.392400 -17.624700 -60.791900 45.230206 -15.544373 1.638548 -0.551956 -18.062088 57.091791 2.007975 -22.309115 -14.265548 -0.000900 0.194000 -0.533000 2.057953 3.916649 -4.601385 1.047605 1.696026 -13.649910 0.264076 -1.904156 20.465213 -2.485500 -0.060300 17.025500 -78.601062 45.073317 38.619001 84.140603 -56.865655 -53.183255 -1.643683 0.842486 1.395307 -7.125000 0.000000 0.000000 67.367861 -20.545600 44.248364 -77.801839 58.745980 -44.056114 1.779194 -1.680191 -15.515509 7.125000 0.000000 0.000000 
21.556474 17.832852 -3.744170 -66.169615 77.114258 -68.878813 -17.833943 -22.109281 -8.382812 -11.060518 5.147024 9.497146 -4.821591 18.017980 -3.742365 7.464600 -15.710900 -50.610200 43.405224 -15.104692 0.581903 -2.220075 -18.619512 61.433614 1.366679 -20.834109 -20.096923 -0.018500 -0.878500 2.414600 1.969465 3.872815 -4.637606 1.042608 1.708235 -14.564675 0.803044 -1.996327 20.441345 -2.066100 -0.033800 16.776000 -76.693302 45.102664 40.369562 82.227195 -56.833266 -51.499436 -1.606949 0.921318 3.278610 -7.125000 0.000000 0.000000 68.011808 -21.512151 44.100921 -74.567512 58.747508 -41.357499 1.750112 -1.684193 -15.305567 7.125000 0.000000 0.000000 
22.265911 17.532572 -3.678061 -59.987460 78.021222 -64.103617 -20.783291 -18.915359 -8.414312 -10.573083 7.295652 15.082898 -2.713129 11.611641 -2.433758 7.184800 -15.485500 -49.569800 41.881993 -13.629653 -0.726833 -3.572916 -19.046982 64.926742 0.337196 -17.126146 -22.862944 -0.079600 -1.820000 5.008500 1.874633 3.797979 -4.667043 1.048465 1.731907 -15.716471 0.716504 -2.011257 20.661127 -2.264100 0.105000 16.902200 -75.178692 44.173277 41.845924 78.988266 -56.850074 -48.628720 -1.569035 1.004541 5.342561 -7.125000 0.000000 0.000000 69.382282 -22.100127 43.191424 -69.484721 58.470915 -37.317989 1.694153 -1.704287 -14.700757 7.125000 0.000000 0.000000 
22.962617 17.264788 -3.620328 -55.462531 78.030402 -61.275054 -22.632084 -16.496773 -8.141047 -9.543759 9.441449 21.048734 -1.135024 6.256134 -3.288387 7.133900 -15.443600 -49.378900 41.637416 -11.594435 -2.099292 -4.531135 -19.586643 67.731725 0.267073 -16.292093 -22.514108 -0.013900 0.762000 -2.094300 1.698495 3.657139 -4.671028 0.007523 1.511979 -16.798465 0.684066 -2.228770 20.862388 -2.533500 0.281900 16.931700 -73.021336 43.074797 43.421543 75.279923 -56.701009 -45.550314 -1.532012 1.024009 7.453852 -7.125000 0.000000 0.000000 71.917854 -23.228031 41.813596 -64.318804 57.972981 -33.281301 1.651437 -1.755478 -13.525116 7.125000 0.000000 0.000000 
23.686683 17.102086 -3.567732 -27.113777 83.053728 -32.680495 -31.760188 -14.941388 -8.905305 -9.100012 12.339815 26.975732 0.576505 -0.007056 -8.144004 7.365000 -15.631700 -50.241700 34.096038 -9.017039 -6.071125 -5.347918 -19.230447 68.105037 0.575028 -12.656910 -18.360108 -0.031500 1.146000 -3.150700 1.250820 2.570482 -4.696242 0.999721 1.569784 -16.243426 0.937884 -2.265049 21.210726 -2.492100 0.360500 17.618000 -71.447920 40.801580 44.574482 72.404188 -56.631822 -43.117197 -1.488656 1.102200 10.902324 -7.125000 0.000000 0.000000 73.695474 -24.461339 39.801581 -59.795235 57.148224 -30.037080 1.579974 -1.787286 -12.223941 7.125000 0.000000 0.000000 
24.274400 17.030394 -3.483533 -17.585457 84.139807 -21.918910 -32.924672 -13.600393 -10.037324 -8.462056 13.402685 29.493156 1.067678 -2.721479 -8.332099 7.689000 -15.885700 -51.434700 33.244251 -6.072919 -11.569795 -5.834554 -20.314516 69.245711 0.768469 -10.902765 -15.435127 -0.417600 4.148000 -11.493500 1.143216 2.001284 -4.822910 1.093893 1.399577 -16.209132 1.212160 -2.438204 21.245920 -2.401900 0.340700 17.990100 -70.079334 38.145096 45.088987 70.630253 -56.405961 -41.714094 -1.352410 1.250614 15.826186 -7.125000 0.000000 0.000000 75.167042 -25.835819 37.783028 -55.974369 56.197306 -27.378596 1.532356 -1.803004 -11.654978 7.125000 0.000000 0.000000 
24.849945 17.017887 -3.416084 -15.292542 84.434161 -19.507952 -33.027975 -11.332053 -9.284861 -7.971113 13.489346 30.749843 1.274010 -4.202215 -7.793715 7.910900 -16.053300 -52.241200 33.187180 -3.566797 -15.455364 -5.892315 -21.241410 69.438349 0.575410 -8.829595 -14.352763 -0.838100 5.839800 -16.320300 1.085617 1.701540 -4.850701 0.748313 1.179218 -16.543152 1.158124 -2.709499 21.131302 -2.599900 0.299100 18.046200 -69.431993 35.541523 44.776180 71.052895 -56.298566 -42.089536 -1.218255 1.366053 19.743603 -7.125000 0.000000 0.000000 76.238693 -27.177891 36.580317 -52.636347 55.179476 -25.045434 1.527487 -1.777450 -12.255743 7.125000 0.000000 0.000000 
25.438779 17.015877 -3.346738 -9.177337 84.305843 -13.410574 -33.231211 -8.636962 -7.784079 -7.728065 13.098599 31.050667 1.386922 -5.161974 -7.402408 8.068000 -16.169000 -52.807100 32.923462 -0.720279 -18.680288 -5.406095 -22.024337 68.199615 0.370177 -7.381525 -14.159291 -1.078900 6.602100 -18.541800 0.990940 1.546331 -4.828191 0.387340 1.018047 -16.606652 1.372035 -2.831303 20.941376 -2.504600 0.268700 17.949200 -69.249692 32.734205 43.929914 71.782184 -56.257117 -42.833167 -1.102907 1.445235 22.888553 -7.125000 0.000000 0.000000 77.160159 -28.255577 36.127182 -49.467819 54.080934 -22.791373 1.522471 -1.759382 -13.397071 7.125000 0.000000 0.000000 
26.053855 17.011633 -3.271137 -3.004613 84.111546 -7.586490 -33.776845 -6.129963 -5.576425 -7.459490 12.677462 31.429365 1.580373 -6.478754 -7.720678 8.328300 -16.355500 -53.736700 32.496572 1.878790 -20.886002 -4.217179 -22.423847 65.132487 0.024828 -6.053016 -14.876093 -0.899800 6.045500 -16.916500 0.895253 1.392120 -4.736531 -0.061004 0.850384 -16.351096 1.064571 -2.770797 20.835709 -2.887100 0.360100 17.824700 -69.299307 29.663689 43.089128 73.876085 -56.364311 -44.629498 -1.147803 1.396777 22.299487 -7.125000 0.000000 0.000000 77.982587 -29.190945 36.205945 -46.361945 52.854743 -20.566848 1.506656 -1.751418 -14.638203 7.125000 0.000000 0.000000 
26.696737 17.020455 -3.189842 2.943063 84.128203 -2.021061 -34.775269 -4.401068 -2.927300 -7.237568 12.340017 31.877389 1.790671 -7.821025 -8.776766 8.667700 -16.589000 -54.933600 31.844852 3.864623 -22.295789 -2.328689 -22.278035 60.233636 -0.201363 -5.234610 -15.307532 -0.807400 5.734500 -16.015900 0.803271 1.102123 -4.649683 -0.374794 0.642845 -15.951990 1.125345 -2.483548 20.697189 -2.854600 0.490300 17.495400 -69.456896 26.853943 42.503106 75.567849 -56.456388 -46.164063 -1.202218 1.344960 21.145989 -7.125000 0.000000 0.000000 78.468842 -30.245413 36.929428 -43.293427 51.467917 -18.388598 1.490554 -1.731288 -15.524234 7.125000 0.000000 0.000000 
27.357709 17.061550 -3.106983 9.465711 84.263448 4.467452 -36.080388 -3.455307 -0.157633 -7.259418 11.936740 31.807819 1.922309 -8.515891 -10.165512 8.941500 -16.769900 -55.887500 30.917701 5.471438 -23.238371 0.174687 -21.525984 53.722402 -0.212755 -5.301673 -15.515841 -0.656800 5.183600 -14.433100 0.713014 0.758577 -4.577996 -0.576408 0.437024 -15.270316 1.403859 -2.204272 20.627735 -2.609300 0.604300 17.227600 -69.760108 24.110334 41.975993 77.633313 -56.548893 -48.027311 -1.286006 1.260709 19.117840 -7.125000 0.000000 0.000000 78.679641 -31.326782 37.941479 -40.382455 49.979084 -16.370885 1.446346 -1.724333 -15.292766 7.125000 0.000000 0.000000 
28.023148 17.132460 -3.020662 15.598206 84.264013 11.008062 -37.362435 -3.025836 2.398914 -7.484239 11.467671 31.254843 1.962296 -8.394363 -11.468740 9.122200 -16.885700 -56.511800 29.786483 7.133534 -23.824101 3.222709 -20.060141 45.712917 0.166876 -6.922096 -15.680928 -0.420100 4.159900 -11.527000 0.659468 0.468408 -4.531739 -0.734082 0.292630 -14.497167 1.023698 -2.383079 20.525980 -3.083400 0.626700 16.922500 -70.339977 21.612061 41.279518 80.252602 -56.599257 -50.382110 -1.353925 1.188904 17.506377 -7.125000 0.000000 0.000000 78.788365 -32.416992 38.815314 -37.894158 48.554742 -14.711446 1.369735 -1.737019 -13.526595 7.125000 0.000000 0.000000 
28.695957 17.212862 -2.928423 18.995834 84.316449 14.799398 -38.353151 -2.875852 5.088503 -7.774530 10.914088 30.501606 1.953819 -7.733443 -12.582294 9.348400 -17.026800 -57.287400 28.788610 8.752257 -23.466539 6.537968 -17.588355 36.483646 0.804900 -9.637135 -16.616340 -0.046300 1.389100 -3.820100 0.617706 0.177336 -4.518249 -1.026485 0.122947 -13.918597 0.569074 -2.664368 20.383420 -3.606300 0.600600 16.540200 -71.082451 19.864562 40.571747 83.340177 -56.544533 -53.190941 -1.378020 1.154151 16.888476 -7.125000 0.000000 0.000000 78.916000 -33.752657 39.588499 -35.866191 47.317556 -13.420351 1.273881 -1.768769 -11.022825 7.125000 0.000000 0.000000 
